<mxfile host="app.diagrams.net" modified="2024-05-02T23:15:35.948Z" agent="Mozilla/5.0 (Windows NT 10.0; Win64; x64) AppleWebKit/537.36 (KHTML, like Gecko) Chrome/124.0.0.0 Safari/537.36" version="24.3.1" etag="XLOM_vM57nziYQYz8pRn" type="github">
  <diagram name="PÃ¡gina-1" id="lk1uVsG0BgJfqTj0Q3P5">
    <mxGraphModel>
      <root>
        <mxCell id="0" />
        <mxCell id="1" parent="0" />
      </root>
    </mxGraphModel>
  </diagram>
</mxfile>
